<svg xmlns="http://www.w3.org/2000/svg" xmlns:xlink="http://www.w3.org/1999/xlink" width="160" zoomAndPan="magnify" viewBox="0 0 120 30.000001" height="40" preserveAspectRatio="xMidYMid meet" version="1.0"><defs><g/><clipPath id="id1"><path d="M 8 3.886719 L 20 3.886719 L 20 15 L 8 15 Z M 8 3.886719 " clip-rule="nonzero"/></clipPath><clipPath id="id2"><path d="M 4.839844 7 L 17 7 L 17 16 L 4.839844 16 Z M 4.839844 7 " clip-rule="nonzero"/></clipPath><clipPath id="id3"><path d="M 4.839844 12 L 16 12 L 16 24 L 4.839844 24 Z M 4.839844 12 " clip-rule="nonzero"/></clipPath><clipPath id="id4"><path d="M 8.460938 15.800781 L 16.085938 15.800781 L 16.085938 27.023438 L 8.460938 27.023438 Z M 8.460938 15.800781 " clip-rule="nonzero"/></clipPath><clipPath id="id5"><path d="M 13.167969 16.300781 L 24.332031 16.300781 L 24.332031 27.023438 L 13.167969 27.023438 Z M 13.167969 16.300781 " clip-rule="nonzero"/></clipPath><clipPath id="id6"><path d="M 16.753906 15.800781 L 27.972656 15.800781 L 27.972656 23.382812 L 16.753906 23.382812 Z M 16.753906 15.800781 " clip-rule="nonzero"/></clipPath><clipPath id="id7"><path d="M 17.253906 7.511719 L 27.972656 7.511719 L 27.972656 18.714844 L 17.253906 18.714844 Z M 17.253906 7.511719 " clip-rule="nonzero"/></clipPath><clipPath id="id8"><path d="M 16 3.886719 L 25 3.886719 L 25 16 L 16 16 Z M 16 3.886719 " clip-rule="nonzero"/></clipPath></defs><g clip-path="url(#id1)"><path fill="#000000" d="M 12.171875 9.6875 L 9.546875 7.058594 C 11.207031 5.699219 13.1875 4.875 15.320312 4.664062 L 15.320312 6.164062 C 13.984375 6.277344 12.230469 6.742188 11.230469 7.738281 L 11.742188 8.25 C 12.542969 7.453125 14.050781 7.007812 15.320312 6.890625 L 15.320312 9.832031 L 16.769531 9.835938 L 16.769531 14.582031 L 19.617188 11.734375 L 19.105469 11.222656 L 17.492188 12.835938 L 17.496094 9.835938 L 19.070312 10.21875 L 19.632812 9.65625 L 17.492188 9.121094 L 16.046875 9.117188 L 16.046875 3.886719 L 15.660156 3.910156 C 14.371094 3.992188 13.113281 4.289062 11.929688 4.789062 C 10.777344 5.273438 9.714844 5.9375 8.773438 6.765625 L 8.484375 7.019531 L 11.660156 10.199219 L 12.171875 9.6875 " fill-opacity="1" fill-rule="nonzero"/></g><g clip-path="url(#id2)"><path fill="#000000" d="M 9.335938 14.371094 L 5.617188 14.371094 C 5.832031 12.234375 6.652344 10.25 8.011719 8.59375 L 9.070312 9.652344 C 8.203125 10.679688 7.292969 12.25 7.292969 13.660156 L 8.015625 13.660156 C 8.015625 12.53125 8.769531 11.148438 9.582031 10.167969 L 11.664062 12.246094 L 12.6875 11.226562 L 16.046875 14.582031 L 16.046875 10.558594 L 15.320312 10.558594 L 15.320312 12.835938 L 13.203125 10.710938 L 14.589844 9.867188 L 14.589844 9.074219 L 12.695312 10.207031 L 11.671875 11.230469 L 7.972656 7.53125 L 7.714844 7.820312 C 6.863281 8.792969 6.183594 9.886719 5.699219 11.078125 C 5.226562 12.234375 4.945312 13.457031 4.867188 14.707031 L 4.839844 15.09375 L 9.335938 15.09375 L 9.335938 14.371094 " fill-opacity="1" fill-rule="nonzero"/></g><g clip-path="url(#id3)"><path fill="#000000" d="M 10.640625 19.6875 L 8.011719 22.316406 C 6.648438 20.65625 5.828125 18.675781 5.617188 16.539062 L 7.117188 16.539062 C 7.230469 17.878906 7.695312 19.632812 8.691406 20.632812 L 9.203125 20.121094 C 8.40625 19.320312 7.960938 17.8125 7.84375 16.539062 L 10.785156 16.539062 L 10.785156 15.09375 L 15.535156 15.09375 L 12.6875 12.246094 L 12.175781 12.757812 L 13.785156 14.371094 L 10.785156 14.367188 L 11.171875 12.792969 L 10.609375 12.230469 L 10.074219 14.371094 L 10.070312 15.816406 L 4.839844 15.816406 L 4.863281 16.203125 C 4.945312 17.492188 5.242188 18.75 5.738281 19.933594 C 6.222656 21.085938 6.890625 22.148438 7.71875 23.089844 L 7.972656 23.378906 L 11.152344 20.199219 L 10.640625 19.6875 " fill-opacity="1" fill-rule="nonzero"/></g><g clip-path="url(#id4)"><path fill="#000000" d="M 15.320312 26.242188 C 13.1875 26.03125 11.203125 25.210938 9.546875 23.851562 L 10.605469 22.792969 C 11.632812 23.660156 13.199219 24.570312 14.609375 24.570312 L 14.609375 23.847656 C 13.480469 23.847656 12.101562 23.09375 11.117188 22.277344 L 13.199219 20.199219 L 12.175781 19.175781 L 15.535156 15.816406 L 11.507812 15.816406 L 11.507812 16.539062 L 13.785156 16.539062 L 11.664062 18.660156 L 10.820312 17.273438 L 10.027344 17.273438 L 11.160156 19.167969 L 12.183594 20.191406 L 8.484375 23.890625 L 8.773438 24.144531 C 9.742188 25 10.839844 25.679688 12.03125 26.164062 C 13.1875 26.636719 14.410156 26.917969 15.660156 26.996094 L 16.046875 27.023438 L 16.046875 22.527344 L 15.320312 22.527344 L 15.320312 26.242188 " fill-opacity="1" fill-rule="nonzero"/></g><g clip-path="url(#id5)"><path fill="#000000" d="M 20.640625 21.222656 L 23.269531 23.851562 C 21.609375 25.210938 19.625 26.035156 17.492188 26.246094 L 17.492188 24.746094 C 18.832031 24.632812 20.585938 24.167969 21.582031 23.171875 L 21.070312 22.660156 C 20.273438 23.457031 18.765625 23.902344 17.492188 24.019531 L 17.492188 21.078125 L 16.046875 21.078125 L 16.046875 16.328125 L 13.199219 19.175781 L 13.710938 19.6875 L 15.320312 18.074219 L 15.320312 21.078125 L 13.742188 20.691406 L 13.183594 21.253906 L 15.320312 21.789062 L 16.769531 21.792969 L 16.769531 27.023438 L 17.152344 27 C 18.445312 26.917969 19.699219 26.621094 20.886719 26.121094 C 22.039062 25.636719 23.097656 24.972656 24.039062 24.144531 L 24.332031 23.890625 L 21.152344 20.710938 L 20.640625 21.222656 " fill-opacity="1" fill-rule="nonzero"/></g><g clip-path="url(#id6)"><path fill="#000000" d="M 23.480469 16.539062 L 27.195312 16.539062 C 26.984375 18.675781 26.164062 20.660156 24.804688 22.316406 L 23.746094 21.257812 C 24.609375 20.230469 25.523438 18.664062 25.523438 17.25 L 24.800781 17.25 C 24.800781 18.378906 24.046875 19.761719 23.230469 20.742188 L 21.152344 18.664062 L 20.125 19.6875 L 16.769531 16.328125 L 16.769531 20.355469 L 17.492188 20.355469 L 17.492188 18.074219 L 19.613281 20.199219 L 18.226562 21.042969 L 18.226562 21.835938 L 20.121094 20.703125 L 21.144531 19.679688 L 24.84375 23.378906 L 25.097656 23.089844 C 25.953125 22.121094 26.632812 21.023438 27.117188 19.832031 C 27.589844 18.675781 27.871094 17.453125 27.949219 16.203125 L 27.972656 15.816406 L 23.480469 15.816406 L 23.480469 16.539062 " fill-opacity="1" fill-rule="nonzero"/></g><g clip-path="url(#id7)"><path fill="#000000" d="M 22.175781 11.222656 L 24.804688 8.59375 C 26.164062 10.253906 26.988281 12.238281 27.199219 14.371094 L 25.699219 14.371094 C 25.585938 13.03125 25.121094 11.277344 24.125 10.28125 L 23.613281 10.792969 C 24.410156 11.589844 24.855469 13.097656 24.972656 14.371094 L 22.03125 14.371094 L 22.027344 15.816406 L 17.28125 15.816406 L 20.125 18.664062 L 20.640625 18.152344 L 19.027344 16.539062 L 22.027344 16.542969 L 21.644531 18.121094 L 22.207031 18.679688 L 22.742188 16.539062 L 22.742188 15.09375 L 27.976562 15.09375 L 27.953125 14.707031 C 27.867188 13.417969 27.574219 12.164062 27.074219 10.976562 C 26.589844 9.824219 25.925781 8.765625 25.097656 7.820312 L 24.84375 7.53125 L 21.664062 10.710938 L 22.175781 11.222656 " fill-opacity="1" fill-rule="nonzero"/></g><g clip-path="url(#id8)"><path fill="#000000" d="M 17.492188 4.667969 C 19.628906 4.878906 21.613281 5.699219 23.269531 7.058594 L 22.210938 8.117188 C 21.183594 7.25 19.613281 6.339844 18.203125 6.339844 L 18.203125 7.0625 C 19.332031 7.0625 20.714844 7.816406 21.695312 8.632812 L 19.613281 10.710938 L 20.636719 11.738281 L 17.28125 15.09375 L 21.304688 15.09375 L 21.304688 14.371094 L 19.027344 14.371094 L 21.152344 12.25 L 21.996094 13.636719 L 22.789062 13.636719 L 21.65625 11.742188 L 20.632812 10.71875 L 24.332031 7.019531 L 24.042969 6.765625 C 23.070312 5.910156 21.976562 5.230469 20.785156 4.746094 C 19.625 4.273438 18.40625 3.992188 17.152344 3.914062 L 16.769531 3.890625 L 16.769531 8.382812 L 17.492188 8.382812 L 17.492188 4.667969 " fill-opacity="1" fill-rule="nonzero"/></g><g fill="#000000" fill-opacity="1"><g transform="translate(30.027128, 22.09057)"><g><path d="M 0.84375 -6.96875 C 0.84375 -9.375 1.445312 -11.25 2.65625 -12.59375 C 3.875 -13.945312 5.59375 -14.625 7.8125 -14.625 C 10.039062 -14.625 11.71875 -13.984375 12.84375 -12.703125 C 13.976562 -11.421875 14.546875 -9.601562 14.546875 -7.25 C 14.546875 -2.757812 12.597656 -0.335938 8.703125 0.015625 L 8.703125 0.171875 C 9.484375 0.242188 10.0625 0.453125 10.4375 0.796875 C 10.820312 1.140625 11.109375 1.597656 11.296875 2.171875 C 11.484375 2.742188 11.648438 3.128906 11.796875 3.328125 C 11.953125 3.535156 12.179688 3.640625 12.484375 3.640625 C 13.003906 3.640625 13.316406 3.09375 13.421875 2 L 13.875 2.03125 C 13.84375 2.9375 13.554688 3.628906 13.015625 4.109375 C 12.484375 4.585938 11.738281 4.828125 10.78125 4.828125 C 9.832031 4.828125 9.097656 4.59375 8.578125 4.125 C 8.054688 3.65625 7.660156 2.957031 7.390625 2.03125 C 7.210938 1.46875 7.0625 1.101562 6.9375 0.9375 C 6.8125 0.78125 6.65625 0.703125 6.46875 0.703125 C 6.082031 0.703125 5.570312 0.984375 4.9375 1.546875 L 4.65625 1.21875 C 5.195312 0.664062 5.816406 0.328125 6.515625 0.203125 L 6.515625 0.078125 C 4.648438 -0.109375 3.238281 -0.8125 2.28125 -2.03125 C 1.320312 -3.257812 0.84375 -4.90625 0.84375 -6.96875 Z M 10.3125 -6.359375 L 10.3125 -7.875 C 10.3125 -10.382812 10.1875 -11.972656 9.9375 -12.640625 C 9.664062 -13.390625 9.273438 -13.851562 8.765625 -14.03125 C 8.472656 -14.144531 8.117188 -14.203125 7.703125 -14.203125 C 7.296875 -14.203125 6.945312 -14.144531 6.65625 -14.03125 C 6.363281 -13.925781 6.117188 -13.734375 5.921875 -13.453125 C 5.734375 -13.179688 5.578125 -12.894531 5.453125 -12.59375 C 5.335938 -12.289062 5.25 -11.863281 5.1875 -11.3125 C 5.101562 -10.519531 5.0625 -9.347656 5.0625 -7.796875 L 5.0625 -6.3125 C 5.0625 -4.644531 5.125 -3.457031 5.25 -2.75 C 5.382812 -2.039062 5.546875 -1.535156 5.734375 -1.234375 C 6.160156 -0.554688 6.820312 -0.21875 7.71875 -0.21875 C 8.800781 -0.21875 9.503906 -0.675781 9.828125 -1.59375 C 10.148438 -2.507812 10.3125 -4.097656 10.3125 -6.359375 Z M 10.3125 -6.359375 "/></g></g></g><g fill="#000000" fill-opacity="1"><g transform="translate(45.415772, 22.09057)"><g><path d="M 12.25 0 L 7.546875 0 L 7.328125 -1.5 C 7.109375 -0.945312 6.78125 -0.523438 6.34375 -0.234375 C 5.914062 0.0546875 5.273438 0.203125 4.421875 0.203125 C 2.296875 0.203125 1.234375 -0.941406 1.234375 -3.234375 L 1.234375 -9.421875 L 0.078125 -9.421875 L 0.078125 -9.796875 L 5.0625 -9.796875 L 5.0625 -2.734375 C 5.0625 -1.910156 5.117188 -1.367188 5.234375 -1.109375 C 5.347656 -0.847656 5.582031 -0.71875 5.9375 -0.71875 C 6.289062 -0.71875 6.601562 -0.929688 6.875 -1.359375 C 7.144531 -1.785156 7.28125 -2.375 7.28125 -3.125 L 7.28125 -9.421875 L 6.34375 -9.421875 L 6.34375 -9.796875 L 11.109375 -9.796875 L 11.109375 -0.375 L 12.25 -0.375 Z M 12.25 0 "/></g></g></g><g fill="#000000" fill-opacity="1"><g transform="translate(57.862468, 22.09057)"><g><path d="M 5.140625 -4.828125 L 5.734375 -4.828125 L 5.734375 -6.421875 C 5.734375 -7.722656 5.660156 -8.597656 5.515625 -9.046875 C 5.378906 -9.492188 5.101562 -9.71875 4.6875 -9.71875 C 4.445312 -9.71875 4.222656 -9.648438 4.015625 -9.515625 C 3.816406 -9.390625 3.71875 -9.210938 3.71875 -8.984375 C 3.71875 -8.753906 3.757812 -8.523438 3.84375 -8.296875 L 4.359375 -8.296875 C 4.472656 -8.003906 4.53125 -7.65625 4.53125 -7.25 C 4.53125 -6.84375 4.359375 -6.492188 4.015625 -6.203125 C 3.671875 -5.910156 3.238281 -5.765625 2.71875 -5.765625 C 1.539062 -5.765625 0.953125 -6.332031 0.953125 -7.46875 C 0.953125 -9.15625 2.382812 -10 5.25 -10 C 6.882812 -10 8.007812 -9.71875 8.625 -9.15625 C 9.25 -8.601562 9.5625 -7.585938 9.5625 -6.109375 L 9.5625 -1.9375 C 9.5625 -1.21875 9.765625 -0.859375 10.171875 -0.859375 C 10.628906 -0.859375 10.898438 -1.566406 10.984375 -2.984375 L 11.296875 -2.96875 C 11.242188 -1.757812 11.015625 -0.925781 10.609375 -0.46875 C 10.210938 -0.0195312 9.5625 0.203125 8.65625 0.203125 C 7.007812 0.203125 6.066406 -0.300781 5.828125 -1.3125 C 5.648438 -0.789062 5.378906 -0.40625 5.015625 -0.15625 C 4.660156 0.0820312 4.140625 0.203125 3.453125 0.203125 C 1.421875 0.203125 0.40625 -0.625 0.40625 -2.28125 C 0.40625 -3.257812 0.789062 -3.925781 1.5625 -4.28125 C 2.34375 -4.644531 3.535156 -4.828125 5.140625 -4.828125 Z M 4.328125 -2.3125 C 4.328125 -1.59375 4.363281 -1.128906 4.4375 -0.921875 C 4.507812 -0.722656 4.648438 -0.625 4.859375 -0.625 C 5.078125 -0.625 5.273438 -0.796875 5.453125 -1.140625 C 5.640625 -1.492188 5.734375 -1.976562 5.734375 -2.59375 L 5.734375 -4.5 L 5.59375 -4.5 C 4.75 -4.5 4.328125 -3.878906 4.328125 -2.640625 Z M 4.328125 -2.3125 "/></g></g></g><g fill="#000000" fill-opacity="1"><g transform="translate(69.157072, 22.09057)"><g><path d="M 0.25 -9.796875 L 5.203125 -9.796875 L 5.203125 -7.90625 C 5.421875 -8.53125 5.753906 -9.035156 6.203125 -9.421875 C 6.660156 -9.804688 7.347656 -10 8.265625 -10 C 10.398438 -10 11.46875 -8.851562 11.46875 -6.5625 L 11.46875 -0.375 L 12.609375 -0.375 L 12.609375 0 L 6.796875 0 L 6.796875 -0.375 L 7.640625 -0.375 L 7.640625 -7.0625 C 7.640625 -7.882812 7.582031 -8.414062 7.46875 -8.65625 C 7.363281 -8.894531 7.164062 -9.015625 6.875 -9.015625 C 6.4375 -9.015625 6.046875 -8.722656 5.703125 -8.140625 C 5.367188 -7.566406 5.203125 -6.867188 5.203125 -6.046875 L 5.203125 -0.375 L 6.09375 -0.375 L 6.09375 0 L 0.25 0 L 0.25 -0.375 L 1.375 -0.375 L 1.375 -9.421875 L 0.25 -9.421875 Z M 0.25 -9.796875 "/></g></g></g><g fill="#000000" fill-opacity="1"><g transform="translate(81.830075, 22.09057)"><g><path d="M 1.234375 -2.9375 L 1.234375 -9.421875 L 0.109375 -9.421875 L 0.109375 -9.796875 L 1.234375 -9.796875 L 1.234375 -12.453125 L 5.0625 -13.390625 L 5.0625 -9.796875 L 7.734375 -9.796875 L 7.734375 -9.421875 L 5.0625 -9.421875 L 5.0625 -2.484375 C 5.0625 -1.835938 5.125 -1.363281 5.25 -1.0625 C 5.382812 -0.769531 5.65625 -0.625 6.0625 -0.625 C 6.476562 -0.625 6.835938 -0.828125 7.140625 -1.234375 C 7.453125 -1.648438 7.660156 -2.210938 7.765625 -2.921875 L 8.109375 -2.875 C 7.992188 -1.9375 7.691406 -1.1875 7.203125 -0.625 C 6.710938 -0.0703125 5.894531 0.203125 4.75 0.203125 C 3.613281 0.203125 2.742188 -0.0195312 2.140625 -0.46875 C 1.535156 -0.925781 1.234375 -1.75 1.234375 -2.9375 Z M 1.234375 -2.9375 "/></g></g></g><g fill="#000000" fill-opacity="1"><g transform="translate(89.935856, 22.09057)"><g><path d="M 3.234375 -11.21875 C 2.503906 -11.21875 1.984375 -11.398438 1.671875 -11.765625 C 1.367188 -12.140625 1.21875 -12.597656 1.21875 -13.140625 C 1.21875 -13.691406 1.382812 -14.144531 1.71875 -14.5 C 2.050781 -14.863281 2.5625 -15.046875 3.25 -15.046875 C 3.9375 -15.046875 4.457031 -14.882812 4.8125 -14.5625 C 5.164062 -14.238281 5.34375 -13.773438 5.34375 -13.171875 C 5.34375 -12.578125 5.171875 -12.101562 4.828125 -11.75 C 4.492188 -11.394531 3.960938 -11.21875 3.234375 -11.21875 Z M 0.125 -9.796875 L 5.171875 -9.796875 L 5.171875 -0.375 L 6.3125 -0.375 L 6.3125 0 L 0.203125 0 L 0.203125 -0.375 L 1.34375 -0.375 L 1.34375 -9.421875 L 0.125 -9.421875 Z M 0.125 -9.796875 "/></g></g></g><g fill="#000000" fill-opacity="1"><g transform="translate(96.45751, 22.09057)"><g><path d="M 0.4375 -14.40625 L 11.125 -14.40625 L 11.34375 -10.125 L 10.96875 -10.125 C 10.457031 -11.601562 9.867188 -12.609375 9.203125 -13.140625 C 8.535156 -13.679688 7.546875 -13.953125 6.234375 -13.953125 L 5.65625 -13.953125 L 5.65625 -7.265625 L 6.578125 -7.265625 C 7.242188 -7.265625 7.796875 -7.503906 8.234375 -7.984375 C 8.671875 -8.460938 8.972656 -9.117188 9.140625 -9.953125 L 9.453125 -9.953125 L 9.453125 -3.875 L 9.09375 -3.875 C 8.875 -4.894531 8.566406 -5.625 8.171875 -6.0625 C 7.785156 -6.507812 7.253906 -6.734375 6.578125 -6.734375 L 5.65625 -6.734375 L 5.65625 -0.453125 L 8.203125 -0.453125 L 8.203125 0 L 0.4375 0 L 0.4375 -0.453125 L 1.640625 -0.453125 L 1.640625 -13.953125 L 0.4375 -13.953125 Z M 0.4375 -14.40625 "/></g></g></g><g fill="#000000" fill-opacity="1"><g transform="translate(108.636754, 22.09057)"><g><path d="M 3.234375 -11.21875 C 2.503906 -11.21875 1.984375 -11.398438 1.671875 -11.765625 C 1.367188 -12.140625 1.21875 -12.597656 1.21875 -13.140625 C 1.21875 -13.691406 1.382812 -14.144531 1.71875 -14.5 C 2.050781 -14.863281 2.5625 -15.046875 3.25 -15.046875 C 3.9375 -15.046875 4.457031 -14.882812 4.8125 -14.5625 C 5.164062 -14.238281 5.34375 -13.773438 5.34375 -13.171875 C 5.34375 -12.578125 5.171875 -12.101562 4.828125 -11.75 C 4.492188 -11.394531 3.960938 -11.21875 3.234375 -11.21875 Z M 0.125 -9.796875 L 5.171875 -9.796875 L 5.171875 -0.375 L 6.3125 -0.375 L 6.3125 0 L 0.203125 0 L 0.203125 -0.375 L 1.34375 -0.375 L 1.34375 -9.421875 L 0.125 -9.421875 Z M 0.125 -9.796875 "/></g></g></g></svg>