<?xml version="1.0" encoding="UTF-8"?>
<svg version="1.1" xmlns="http://www.w3.org/2000/svg" width="157" height="167">
<path d="M0 0 C7.15801225 5.82628904 13.52591766 12.4382985 20 19 C22.38848528 17.86358385 24.24002362 16.80538626 26.3125 15.125 C34.05882353 9 34.05882353 9 38 9 C38.3125 11.25 38.3125 11.25 38 14 C33.89189189 18 33.89189189 18 31 18 C32.1241176 19.29243468 33.24932592 20.58392075 34.375 21.875 C35.00148437 22.59429687 35.62796875 23.31359375 36.2734375 24.0546875 C37.47426834 25.4076598 38.7208345 26.7208345 40 28 C40.33 24.37 40.66 20.74 41 17 C42.65 17 44.3 17 46 17 C46 24.92 46 32.84 46 41 C41.49210724 37.13609192 37.20232971 33.33926648 33.0625 29.125 C32.56943359 28.62742187 32.07636719 28.12984375 31.56835938 27.6171875 C30.37654008 26.41379715 29.18791322 25.20724635 28 24 C27.4225 24.28875 26.845 24.5775 26.25 24.875 C23.125 26.4375 23.125 26.4375 20 28 C16.7 24.7 13.4 21.4 10 18 C6.5200033 21.4799967 5.41168456 22.71810175 3.8125 27 C3.48894531 27.845625 3.16539063 28.69125 2.83203125 29.5625 C2.10331886 31.69731938 1.50353467 33.80275781 1 36 C-0.65 36 -2.3 36 -4 36 C-3.76005612 28.80168363 -1.76807545 23.98253581 1.72265625 17.69921875 C3.28516595 14.89510156 3.28516595 14.89510156 3 11 C2.01 10.34 1.02 9.68 0 9 C-5.97831052 18.32011892 -9.32829396 27.31317584 -12 38 C-5.4 38 1.2 38 8 38 C8 39.98 8 41.96 8 44 C-0.58 44 -9.16 44 -18 44 C-16.41354638 27.4143485 -12.57875904 11.91816775 0 0 Z " fill="#000000" transform="translate(32,39)"/>
<path d="M0 0 C3.875 1.75 3.875 1.75 5 4 C4.39239518 6.3494053 3.72870472 8.68529088 3 11 C8.94 10.505 8.94 10.505 15 10 C13.02 8.02 11.04 6.04 9 4 C9.66 2.68 10.32 1.36 11 0 C14.39266429 0.5835494 16.04035138 1.66435323 18.453125 4.08984375 C19.38125 5.01893555 19.38125 5.01893555 20.328125 5.96679688 C20.96234375 6.61712891 21.5965625 7.26746094 22.25 7.9375 C23.22453125 8.90719727 23.22453125 8.90719727 24.21875 9.89648438 C29 14.73297991 29 14.73297991 29 17 C20.09 17 11.18 17 2 17 C2 19.64 2 22.28 2 25 C-3.28 25 -8.56 25 -14 25 C-11.10662227 34.56413495 -11.10662227 34.56413495 -6 43 C-6.66 44.32 -7.32 45.64 -8 47 C-9.8359375 46.7734375 -9.8359375 46.7734375 -12 46 C-16.58999451 39.83774218 -18.0487953 32.46766672 -19 25 C-21.31 25 -23.62 25 -26 25 C-22.05253139 40.79298538 -22.05253139 40.79298538 -13 54 C-8.71 49.71 -4.42 45.42 0 41 C1.32 41.66 2.64 42.32 4 43 C3.42619828 46.66377743 2.02730342 48.32767225 -0.59765625 50.890625 C-1.31630859 51.59960938 -2.03496094 52.30859375 -2.77539062 53.0390625 C-3.53013672 53.76867187 -4.28488281 54.49828125 -5.0625 55.25 C-6.20041992 56.36761719 -6.20041992 56.36761719 -7.36132812 57.5078125 C-9.23432207 59.34546694 -11.11395611 61.17575724 -13 63 C-23.59125561 55.14723685 -29.13629018 41.69508184 -31.03515625 28.92163086 C-31.40365572 25.95319891 -31.69410389 22.97553485 -32 20 C-22.43 20 -12.86 20 -3 20 C-3 17.03 -3 14.06 -3 11 C-2.34375 7.71484375 -2.34375 7.71484375 -1.5 4.9375 C-1.2215625 3.99777344 -0.943125 3.05804688 -0.65625 2.08984375 C-0.4396875 1.40019531 -0.223125 0.71054688 0 0 Z " fill="#000000" transform="translate(46,66)"/>
<path d="M0 0 C17.51356803 1.459464 29.43596695 5.97017241 43 17 C41.54254576 20.36335594 39.68882146 22.54534005 37.0859375 25.109375 C36.32539062 25.86347656 35.56484375 26.61757813 34.78125 27.39453125 C33.9871875 28.17183594 33.193125 28.94914062 32.375 29.75 C31.17230469 30.93916016 31.17230469 30.93916016 29.9453125 32.15234375 C27.96797154 34.10614493 25.98611091 36.05512103 24 38 C24.95015446 39.42862915 25.90076401 40.85695564 26.8515625 42.28515625 C27.38088379 43.08058838 27.91020508 43.87602051 28.45556641 44.69555664 C29.38861873 46.08776038 30.32890626 47.47520506 31.28271484 48.85327148 C34 52.79436746 34 52.79436746 34 55 C31.25 55.375 31.25 55.375 28 55 C25.625 52 25.625 52 24 49 C21.36 51.64 18.72 54.28 16 57 C19.3 57.33 22.6 57.66 26 58 C26 59.98 26 61.96 26 64 C18.41 64 10.82 64 3 64 C4.72629846 60.54740307 5.83225473 58.92761399 8.4765625 56.328125 C9.146875 55.66425781 9.8171875 55.00039062 10.5078125 54.31640625 C11.55582031 53.29353516 11.55582031 53.29353516 12.625 52.25 C13.33140625 51.55261719 14.0378125 50.85523438 14.765625 50.13671875 C16.50598703 48.41987512 18.25084981 46.70788168 20 45 C19.319375 44.2575 18.63875 43.515 17.9375 42.75 C16 40 16 40 16 37.9453125 C17.29755218 35.42116803 18.9336095 33.81593108 21 31.875 C23.89285588 29.22939276 23.89285588 29.22939276 26 26 C25.360625 25.7525 24.72125 25.505 24.0625 25.25 C20.72644725 23.88834582 17.45763261 22.40601844 14.18359375 20.90234375 C12.13206262 20.05457328 10.16442017 19.47607428 8 19 C8 17.35 8 15.7 8 14 C15.45078198 14.36052171 20.52196378 16.40854987 27 20 C28.33014583 20.67300394 29.66240902 21.34191748 31 22 C31.99 20.68 32.98 19.36 34 18 C24.84820867 11.47086631 15.9765897 8.19531794 5 6 C5 12.6 5 19.2 5 26 C3.35 26 1.7 26 0 26 C0 17.42 0 8.84 0 0 Z " fill="#000000" transform="translate(81,19)"/>
<path d="M0 0 C8.58 0 17.16 0 26 0 C24.60060416 16.79275003 20.55979369 30.38931598 9 43 C5.63664406 41.54254576 3.45465995 39.68882146 0.890625 37.0859375 C0.13652344 36.32539062 -0.61757812 35.56484375 -1.39453125 34.78125 C-2.17183594 33.9871875 -2.94914062 33.193125 -3.75 32.375 C-4.54277344 31.57320312 -5.33554688 30.77140625 -6.15234375 29.9453125 C-8.10614493 27.96797154 -10.05512103 25.98611091 -12 24 C-13.42862915 24.95015446 -14.85695564 25.90076401 -16.28515625 26.8515625 C-17.08058838 27.38088379 -17.87602051 27.91020508 -18.69555664 28.45556641 C-20.08776038 29.38861873 -21.47520506 30.32890626 -22.85327148 31.28271484 C-26.79436746 34 -26.79436746 34 -29 34 C-29.375 31.25 -29.375 31.25 -29 28 C-26 25.625 -26 25.625 -23 24 C-25.64 21.36 -28.28 18.72 -31 16 C-31.33 19.3 -31.66 22.6 -32 26 C-33.65 26 -35.3 26 -37 26 C-37 18.08 -37 10.16 -37 2 C-32.49210724 5.86390808 -28.20232971 9.66073352 -24.0625 13.875 C-23.32290039 14.62136719 -23.32290039 14.62136719 -22.56835938 15.3828125 C-21.37654008 16.58620285 -20.18791322 17.79275365 -19 19 C-16.50638429 17.79618552 -14.31856917 16.54571278 -12 15 C-11.30132812 15.721875 -10.60265625 16.44375 -9.8828125 17.1875 C-8.97273438 18.115625 -8.06265625 19.04375 -7.125 20 C-6.22007813 20.928125 -5.31515625 21.85625 -4.3828125 22.8125 C-2.29355722 25.22542376 -2.29355722 25.22542376 0 25 C0.98669759 23.10807525 1.9640602 21.21128022 2.9375 19.3125 C3.48277344 18.25675781 4.02804688 17.20101562 4.58984375 16.11328125 C5.8470576 13.33765953 6.56069569 10.99727874 7 8 C8.65 8 10.3 8 12 8 C13.0062394 15.37908893 9.44810612 20.66656156 6 27 C5.32718395 28.33024088 4.65771191 29.66222675 4 31 C5.32 31.99 6.64 32.98 8 34 C14.66988148 25.33603024 18.20936836 15.74378984 20 5 C13.4 5 6.8 5 0 5 C0 3.35 0 1.7 0 0 Z " fill="#000000" transform="translate(118,86)"/>
<path d="M0 0 C9.1368434 8.64424836 14.08804562 18.89153433 17 31 C17.29583984 32.175625 17.29583984 32.175625 17.59765625 33.375 C18.13461928 36.87829277 18 40.45579494 18 44 C8.43 44 -1.14 44 -11 44 C-11 46.97 -11 49.94 -11 53 C-11.65625 56.06640625 -11.65625 56.06640625 -12.5 58.5625 C-12.7784375 59.40941406 -13.056875 60.25632813 -13.34375 61.12890625 C-13.5603125 61.74636719 -13.776875 62.36382812 -14 63 C-15.32 62.34 -16.64 61.68 -18 61 C-17.67 58.03 -17.34 55.06 -17 52 C-22.94 52.495 -22.94 52.495 -29 53 C-27.02 54.98 -25.04 56.96 -23 59 C-23.66 60.32 -24.32 61.64 -25 63 C-29.19827117 62.49348004 -31.17866249 60.19038334 -34.0625 57.25 C-34.91972656 56.38890625 -35.77695313 55.5278125 -36.66015625 54.640625 C-39 52 -39 52 -42 47 C-33.42 47 -24.84 47 -16 47 C-16 44.03 -16 41.06 -16 38 C-10.72 38 -5.44 38 0 38 C-0.598125 35.958125 -1.19625 33.91625 -1.8125 31.8125 C-2.14894531 30.66394531 -2.48539063 29.51539062 -2.83203125 28.33203125 C-3.87409966 24.99143573 -3.87409966 24.99143573 -5.6875 22.21875 C-6.120625 21.4865625 -6.55375 20.754375 -7 20 C-6.1875 17.6875 -6.1875 17.6875 -5 16 C-0.75218808 17.75066725 0.25987403 19.80738371 2.1171875 23.84375 C4.05105854 28.56718722 5.31055679 32.87581289 5 38 C7.31 38 9.62 38 12 38 C9.97408179 26.98184832 7.06758356 17.06758356 -1 9 C-5.29 13.29 -9.58 17.58 -14 22 C-15.32 21.34 -16.64 20.68 -18 20 C-16.5735422 16.7413364 -14.83295838 14.5975146 -12.3046875 12.109375 C-11.58925781 11.40039062 -10.87382813 10.69140625 -10.13671875 9.9609375 C-9.39035156 9.23132812 -8.64398438 8.50171875 -7.875 7.75 C-7.12089844 7.00492188 -6.36679688 6.25984375 -5.58984375 5.4921875 C-3.73099228 3.6568658 -1.86762995 1.8263809 0 0 Z " fill="#000000" transform="translate(126,39)"/>
<path d="M0 0 C0 8.91 0 17.82 0 27 C2.64 27 5.28 27 8 27 C8 32.28 8 37.56 8 43 C16.17662821 40.83532746 16.17662821 40.83532746 23.78125 37.3125 C24.5134375 36.879375 25.245625 36.44625 26 36 C28.3125 36.8125 28.3125 36.8125 30 38 C28.24933275 42.24781192 26.19261629 43.25987403 22.15625 45.1171875 C17.43281278 47.05105854 13.12418711 48.31055679 8 48 C8 50.31 8 52.62 8 55 C17.883318 53.27616546 26.45092136 50.24629651 35 45 C35.66 44.01 36.32 43.02 37 42 C32.71 37.71 28.42 33.42 24 29 C24.66 27.68 25.32 26.36 26 25 C29.66377743 25.57380172 31.32767225 26.97269658 33.890625 29.59765625 C34.59960938 30.31630859 35.30859375 31.03496094 36.0390625 31.77539062 C36.76867187 32.53013672 37.49828125 33.28488281 38.25 34.0625 C39.36761719 35.20041992 39.36761719 35.20041992 40.5078125 36.36132812 C42.34546694 38.23432207 44.17575724 40.11395611 46 42 C43.93504593 48.19486222 35.9044045 51.65524592 30.375 54.6875 C21.91183871 58.74444398 12.33629805 61 3 61 C3 51.43 3 41.86 3 32 C-0.3 32 -3.6 32 -7 32 C-10.1640625 31.34375 -10.1640625 31.34375 -12.625 30.5 C-13.46289062 30.2215625 -14.30078125 29.943125 -15.1640625 29.65625 C-15.76992188 29.4396875 -16.37578125 29.223125 -17 29 C-16.34 27.68 -15.68 26.36 -15 25 C-12.03 25.33 -9.06 25.66 -6 26 C-6 21.71 -6 17.42 -6 13 C-8.31 15.31 -10.62 17.62 -13 20 C-14.32 19.34 -15.64 18.68 -17 18 C-15.64526876 14.97328771 -14.1260408 12.87863194 -11.77734375 10.546875 C-11.15666016 9.928125 -10.53597656 9.309375 -9.89648438 8.671875 C-9.25001953 8.03765625 -8.60355469 7.4034375 -7.9375 6.75 C-7.28716797 6.1003125 -6.63683594 5.450625 -5.96679688 4.78125 C-1.14034598 0 -1.14034598 0 0 0 Z " fill="#000000" transform="translate(78,88)"/>
<path d="M0 0 C7.92 0 15.84 0 24 0 C20.13609192 4.50789276 16.33926648 8.79767029 12.125 12.9375 C11.37863281 13.67709961 11.37863281 13.67709961 10.6171875 14.43164062 C9.41379715 15.62345992 8.20724635 16.81208678 7 18 C8.20381448 20.49361571 9.45428722 22.68143083 11 25 C7.7 28.3 4.4 31.6 1 35 C6.10922491 40.10922491 11.7441495 43.06376123 19 44 C19 45.65 19 47.3 19 49 C13.34627343 49.40538885 9.65145634 48.23345625 4.8125 45.5 C-0.24505512 42.69660508 -0.24505512 42.69660508 -6 42 C-6.66 42.99 -7.32 43.98 -8 45 C1.69121918 51.18588458 10.65370065 55.05492011 22 57 C22 50.4 22 43.8 22 37 C23.65 37 25.3 37 27 37 C27 45.58 27 54.16 27 63 C10.40611458 62.27852672 -3.71972211 57.4615927 -16 46 C-14.54254576 42.63664406 -12.68882146 40.45465995 -10.0859375 37.890625 C-9.32539062 37.13652344 -8.56484375 36.38242188 -7.78125 35.60546875 C-6.9871875 34.82816406 -6.193125 34.05085938 -5.375 33.25 C-4.57320312 32.45722656 -3.77140625 31.66445312 -2.9453125 30.84765625 C-0.96797154 28.89385507 1.01388909 26.94487897 3 25 C2.60022949 24.48050781 2.20045898 23.96101563 1.78857422 23.42578125 C-1.02544675 19.72954976 -3.68983185 16.1132577 -5.875 12 C-6.48988281 10.8553125 -6.48988281 10.8553125 -7.1171875 9.6875 C-7.40851562 9.130625 -7.69984375 8.57375 -8 8 C-5.1875 7.75 -5.1875 7.75 -2 8 C0.04040776 10.04040776 1 11.08325244 1 14 C2.31287621 12.85459775 3.62529021 11.70866567 4.9375 10.5625 C5.66839844 9.92441406 6.39929688 9.28632812 7.15234375 8.62890625 C8.12139353 7.77458541 9.08651175 6.91348825 10 6 C6.7 5.67 3.4 5.34 0 5 C0 3.35 0 1.7 0 0 Z " fill="#000000" transform="translate(51,86)"/>
<path d="M0 0 C0 9.57 0 19.14 0 29 C2.97 29 5.94 29 9 29 C12.28515625 29.65625 12.28515625 29.65625 15.0625 30.5 C16.00222656 30.7784375 16.94195312 31.056875 17.91015625 31.34375 C18.59980469 31.5603125 19.28945312 31.776875 20 32 C18.79296875 34.015625 18.79296875 34.015625 17 36 C13.85370877 36.2390964 11.13787239 35.54571694 8 35 C8.495 40.94 8.495 40.94 9 47 C10.98 45.02 12.96 43.04 15 41 C16.32 41.66 17.64 42.32 19 43 C19 46 19 46 17.63891602 47.7175293 C17.01686279 48.33023682 16.39480957 48.94294434 15.75390625 49.57421875 C15.08166016 50.24130859 14.40941406 50.90839844 13.71679688 51.59570312 C13.00587891 52.28599609 12.29496094 52.97628906 11.5625 53.6875 C10.85544922 54.38939453 10.14839844 55.09128906 9.41992188 55.81445312 C4.15374453 61 4.15374453 61 3 61 C3 52.09 3 43.18 3 34 C0.36 34 -2.28 34 -5 34 C-5 28.72 -5 23.44 -5 18 C-14.36054836 20.69912819 -14.36054836 20.69912819 -23 25 C-25.3125 24.6875 -25.3125 24.6875 -27 24 C-27 22.68 -27 21.36 -27 20 C-19.6704934 15.88187516 -13.49484137 13.03758779 -5 13 C-5 10.69 -5 8.38 -5 6 C-16.04481561 8.35585778 -26.73794189 10.73794189 -35 19 C-30.71 23.29 -26.42 27.58 -22 32 C-22.66 33.32 -23.32 34.64 -24 36 C-27.15204981 34.60652624 -29.26171773 32.97514921 -31.671875 30.5234375 C-32.33574219 29.853125 -32.99960937 29.1828125 -33.68359375 28.4921875 C-34.36550781 27.79351562 -35.04742187 27.09484375 -35.75 26.375 C-36.44738281 25.66859375 -37.14476562 24.9621875 -37.86328125 24.234375 C-39.58012488 22.49401297 -41.29211832 20.74915019 -43 19 C-39.4418975 11.31310911 -30.51024562 7.30171326 -23.00390625 4.06640625 C-15.44235709 1.38200713 -8.01003545 0 0 0 Z " fill="#000000" transform="translate(78,19)"/>
</svg>
